<mxfile host="65bd71144e">
    <diagram id="0GyGTH7AX5HAbw5aKTsm" name="Page-1">
        <mxGraphModel dx="2164" dy="1251" grid="1" gridSize="10" guides="1" tooltips="1" connect="1" arrows="1" fold="1" page="1" pageScale="1" pageWidth="827" pageHeight="1169" math="0" shadow="0">
            <root>
                <mxCell id="0"/>
                <mxCell id="1" parent="0"/>
                <mxCell id="114" value="" style="rounded=0;whiteSpace=wrap;html=1;fillColor=#CCCCCC;fontColor=#333333;strokeColor=#666666;strokeWidth=2;" vertex="1" parent="1">
                    <mxGeometry x="234" y="1132" width="360" height="110" as="geometry"/>
                </mxCell>
                <mxCell id="95" value="" style="rounded=0;whiteSpace=wrap;html=1;fillColor=#CCCCCC;fontColor=#333333;strokeColor=#666666;strokeWidth=2;" vertex="1" parent="1">
                    <mxGeometry x="119" y="882" width="590" height="230" as="geometry"/>
                </mxCell>
                <mxCell id="65" value="" style="rounded=0;whiteSpace=wrap;html=1;fillColor=#CCCCCC;fontColor=#333333;strokeColor=#666666;strokeWidth=2;" vertex="1" parent="1">
                    <mxGeometry x="174" y="312" width="480" height="300" as="geometry"/>
                </mxCell>
                <mxCell id="61" value="" style="rounded=0;whiteSpace=wrap;html=1;fillColor=#ffe6cc;strokeColor=#d79b00;" vertex="1" parent="1">
                    <mxGeometry x="381" y="516" width="154" height="86" as="geometry"/>
                </mxCell>
                <mxCell id="60" value="" style="rounded=0;whiteSpace=wrap;html=1;fillColor=#fff2cc;strokeColor=#d6b656;" vertex="1" parent="1">
                    <mxGeometry x="187" y="516" width="154" height="86" as="geometry"/>
                </mxCell>
                <mxCell id="34" value="" style="rounded=0;whiteSpace=wrap;html=1;fillColor=#CCCCCC;fontColor=#333333;strokeColor=#666666;strokeWidth=2;" vertex="1" parent="1">
                    <mxGeometry x="229" y="32" width="355" height="260" as="geometry"/>
                </mxCell>
                <mxCell id="5" style="edgeStyle=none;html=1;exitX=0.9;exitY=0.5;exitDx=0;exitDy=0;exitPerimeter=0;entryX=0;entryY=0.5;entryDx=0;entryDy=0;" edge="1" parent="1" source="2" target="3">
                    <mxGeometry relative="1" as="geometry"/>
                </mxCell>
                <mxCell id="29" style="edgeStyle=none;html=1;exitX=0.5;exitY=1;exitDx=0;exitDy=0;entryX=0.5;entryY=0;entryDx=0;entryDy=0;" edge="1" parent="1" source="2" target="25">
                    <mxGeometry relative="1" as="geometry"/>
                </mxCell>
                <mxCell id="2" value="" style="shape=actor;whiteSpace=wrap;html=1;fillColor=#f8cecc;strokeColor=#b85450;strokeWidth=3;" vertex="1" parent="1">
                    <mxGeometry x="299" y="52" width="30" height="40" as="geometry"/>
                </mxCell>
                <mxCell id="3" value="" style="shape=process;whiteSpace=wrap;html=1;backgroundOutline=1;fillColor=#dae8fc;strokeColor=#6c8ebf;strokeWidth=3;" vertex="1" parent="1">
                    <mxGeometry x="394" y="62" width="40" height="20" as="geometry"/>
                </mxCell>
                <mxCell id="24" style="edgeStyle=none;html=1;exitX=0.5;exitY=1;exitDx=0;exitDy=0;entryX=0.5;entryY=0;entryDx=0;entryDy=0;" edge="1" parent="1" source="4" target="7">
                    <mxGeometry relative="1" as="geometry"/>
                </mxCell>
                <mxCell id="4" value="" style="shape=actor;whiteSpace=wrap;html=1;fillColor=#dae8fc;strokeColor=#6c8ebf;strokeWidth=3;" vertex="1" parent="1">
                    <mxGeometry x="504" y="52" width="30" height="40" as="geometry"/>
                </mxCell>
                <mxCell id="6" style="edgeStyle=none;html=1;exitX=1;exitY=0.5;exitDx=0;exitDy=0;entryX=0.1;entryY=0.5;entryDx=0;entryDy=0;entryPerimeter=0;" edge="1" parent="1" source="3" target="4">
                    <mxGeometry relative="1" as="geometry"/>
                </mxCell>
                <mxCell id="30" style="edgeStyle=none;html=1;exitX=0;exitY=0.25;exitDx=0;exitDy=0;entryX=1;entryY=0.25;entryDx=0;entryDy=0;" edge="1" parent="1" source="7" target="25">
                    <mxGeometry relative="1" as="geometry"/>
                </mxCell>
                <mxCell id="7" value="" style="shape=process;whiteSpace=wrap;html=1;backgroundOutline=1;fillColor=#fff2cc;strokeColor=#d6b656;strokeWidth=3;" vertex="1" parent="1">
                    <mxGeometry x="499" y="142" width="40" height="20" as="geometry"/>
                </mxCell>
                <mxCell id="31" style="edgeStyle=none;html=1;exitX=1;exitY=0.25;exitDx=0;exitDy=0;entryX=1;entryY=0.75;entryDx=0;entryDy=0;" edge="1" parent="1" source="11" target="4">
                    <mxGeometry relative="1" as="geometry">
                        <Array as="points">
                            <mxPoint x="564" y="237"/>
                            <mxPoint x="564" y="82"/>
                        </Array>
                    </mxGeometry>
                </mxCell>
                <mxCell id="11" value="" style="shape=process;whiteSpace=wrap;html=1;backgroundOutline=1;fillColor=#f8cecc;strokeColor=#b85450;strokeWidth=3;" vertex="1" parent="1">
                    <mxGeometry x="344" y="232" width="40" height="20" as="geometry"/>
                </mxCell>
                <mxCell id="12" value="" style="shape=process;whiteSpace=wrap;html=1;backgroundOutline=1;fillColor=#d5e8d4;strokeColor=#82b366;strokeWidth=3;" vertex="1" parent="1">
                    <mxGeometry x="244" y="232" width="40" height="20" as="geometry"/>
                </mxCell>
                <mxCell id="22" value="ToDo" style="text;html=1;align=center;verticalAlign=middle;resizable=0;points=[];autosize=1;strokeColor=none;fillColor=none;" vertex="1" parent="1">
                    <mxGeometry x="389" y="30" width="50" height="30" as="geometry"/>
                </mxCell>
                <mxCell id="23" value="InProgress" style="text;html=1;align=center;verticalAlign=middle;resizable=0;points=[];autosize=1;strokeColor=none;fillColor=none;" vertex="1" parent="1">
                    <mxGeometry x="479" y="162" width="80" height="30" as="geometry"/>
                </mxCell>
                <mxCell id="27" style="edgeStyle=none;html=1;exitX=1;exitY=0.5;exitDx=0;exitDy=0;entryX=0.5;entryY=0;entryDx=0;entryDy=0;" edge="1" parent="1" source="25" target="11">
                    <mxGeometry relative="1" as="geometry">
                        <Array as="points">
                            <mxPoint x="364" y="152"/>
                        </Array>
                    </mxGeometry>
                </mxCell>
                <mxCell id="28" style="edgeStyle=none;html=1;exitX=0;exitY=0.5;exitDx=0;exitDy=0;entryX=0.5;entryY=0;entryDx=0;entryDy=0;" edge="1" parent="1" source="25" target="12">
                    <mxGeometry relative="1" as="geometry">
                        <Array as="points">
                            <mxPoint x="264" y="152"/>
                        </Array>
                    </mxGeometry>
                </mxCell>
                <mxCell id="25" value="" style="shape=process;whiteSpace=wrap;html=1;backgroundOutline=1;fillColor=#e1d5e7;strokeColor=#9673a6;strokeWidth=3;" vertex="1" parent="1">
                    <mxGeometry x="294" y="142" width="40" height="20" as="geometry"/>
                </mxCell>
                <mxCell id="26" value="Review" style="text;html=1;align=center;verticalAlign=middle;resizable=0;points=[];autosize=1;strokeColor=none;fillColor=none;" vertex="1" parent="1">
                    <mxGeometry x="284" y="162" width="60" height="30" as="geometry"/>
                </mxCell>
                <mxCell id="32" value="Rejected" style="text;html=1;align=center;verticalAlign=middle;resizable=0;points=[];autosize=1;strokeColor=none;fillColor=none;" vertex="1" parent="1">
                    <mxGeometry x="329" y="252" width="70" height="30" as="geometry"/>
                </mxCell>
                <mxCell id="33" value="Complete" style="text;html=1;align=center;verticalAlign=middle;resizable=0;points=[];autosize=1;strokeColor=none;fillColor=none;" vertex="1" parent="1">
                    <mxGeometry x="229" y="252" width="70" height="30" as="geometry"/>
                </mxCell>
                <mxCell id="35" value="Task Life Cycle" style="text;html=1;align=center;verticalAlign=middle;resizable=0;points=[];autosize=1;strokeColor=default;fillColor=default;strokeWidth=1;perimeterSpacing=1;rounded=0;" vertex="1" parent="1">
                    <mxGeometry x="479" y="252" width="100" height="30" as="geometry"/>
                </mxCell>
                <mxCell id="49" style="edgeStyle=orthogonalEdgeStyle;html=1;exitX=0.5;exitY=1;exitDx=0;exitDy=0;entryX=0.5;entryY=0;entryDx=0;entryDy=0;" edge="1" parent="1" source="37" target="39">
                    <mxGeometry relative="1" as="geometry"/>
                </mxCell>
                <mxCell id="50" style="edgeStyle=orthogonalEdgeStyle;html=1;exitX=0.5;exitY=1;exitDx=0;exitDy=0;entryX=0.5;entryY=0;entryDx=0;entryDy=0;" edge="1" parent="1" source="37" target="38">
                    <mxGeometry relative="1" as="geometry"/>
                </mxCell>
                <mxCell id="37" value="" style="shape=actor;whiteSpace=wrap;html=1;strokeWidth=3;" vertex="1" parent="1">
                    <mxGeometry x="346.5" y="322" width="30" height="40" as="geometry"/>
                </mxCell>
                <mxCell id="54" style="edgeStyle=none;html=1;exitX=0.5;exitY=1;exitDx=0;exitDy=0;" edge="1" parent="1" source="38" target="43">
                    <mxGeometry relative="1" as="geometry"/>
                </mxCell>
                <mxCell id="55" style="edgeStyle=orthogonalEdgeStyle;html=1;exitX=0.5;exitY=1;exitDx=0;exitDy=0;entryX=0.5;entryY=0;entryDx=0;entryDy=0;" edge="1" parent="1" source="38" target="45">
                    <mxGeometry relative="1" as="geometry"/>
                </mxCell>
                <mxCell id="56" style="edgeStyle=orthogonalEdgeStyle;html=1;exitX=0.5;exitY=1;exitDx=0;exitDy=0;entryX=0.5;entryY=0;entryDx=0;entryDy=0;" edge="1" parent="1" source="38" target="44">
                    <mxGeometry relative="1" as="geometry"/>
                </mxCell>
                <mxCell id="38" value="" style="shape=actor;whiteSpace=wrap;html=1;fillColor=#f8cecc;strokeColor=#b85450;strokeWidth=3;" vertex="1" parent="1">
                    <mxGeometry x="444" y="427" width="30" height="40" as="geometry"/>
                </mxCell>
                <mxCell id="51" style="edgeStyle=none;html=1;exitX=0.5;exitY=1;exitDx=0;exitDy=0;entryX=0.5;entryY=0;entryDx=0;entryDy=0;" edge="1" parent="1" source="39" target="40">
                    <mxGeometry relative="1" as="geometry"/>
                </mxCell>
                <mxCell id="52" style="edgeStyle=orthogonalEdgeStyle;html=1;exitX=0.5;exitY=1;exitDx=0;exitDy=0;entryX=0.5;entryY=0;entryDx=0;entryDy=0;" edge="1" parent="1" source="39" target="42">
                    <mxGeometry relative="1" as="geometry"/>
                </mxCell>
                <mxCell id="53" style="edgeStyle=orthogonalEdgeStyle;html=1;exitX=0.5;exitY=1;exitDx=0;exitDy=0;entryX=0.5;entryY=0;entryDx=0;entryDy=0;" edge="1" parent="1" source="39" target="41">
                    <mxGeometry relative="1" as="geometry"/>
                </mxCell>
                <mxCell id="39" value="" style="shape=actor;whiteSpace=wrap;html=1;fillColor=#f8cecc;strokeColor=#b85450;strokeWidth=3;" vertex="1" parent="1">
                    <mxGeometry x="249" y="427" width="30" height="40" as="geometry"/>
                </mxCell>
                <mxCell id="40" value="" style="shape=actor;whiteSpace=wrap;html=1;fillColor=#dae8fc;strokeColor=#6c8ebf;strokeWidth=3;" vertex="1" parent="1">
                    <mxGeometry x="249" y="532" width="30" height="40" as="geometry"/>
                </mxCell>
                <mxCell id="41" value="" style="shape=actor;whiteSpace=wrap;html=1;fillColor=#dae8fc;strokeColor=#6c8ebf;strokeWidth=3;" vertex="1" parent="1">
                    <mxGeometry x="304" y="532" width="30" height="40" as="geometry"/>
                </mxCell>
                <mxCell id="42" value="" style="shape=actor;whiteSpace=wrap;html=1;fillColor=#dae8fc;strokeColor=#6c8ebf;strokeWidth=3;" vertex="1" parent="1">
                    <mxGeometry x="194" y="532" width="30" height="40" as="geometry"/>
                </mxCell>
                <mxCell id="43" value="" style="shape=actor;whiteSpace=wrap;html=1;fillColor=#dae8fc;strokeColor=#6c8ebf;strokeWidth=3;" vertex="1" parent="1">
                    <mxGeometry x="443" y="532" width="30" height="40" as="geometry"/>
                </mxCell>
                <mxCell id="44" value="" style="shape=actor;whiteSpace=wrap;html=1;fillColor=#dae8fc;strokeColor=#6c8ebf;strokeWidth=3;" vertex="1" parent="1">
                    <mxGeometry x="498" y="532" width="30" height="40" as="geometry"/>
                </mxCell>
                <mxCell id="45" value="" style="shape=actor;whiteSpace=wrap;html=1;fillColor=#dae8fc;strokeColor=#6c8ebf;strokeWidth=3;" vertex="1" parent="1">
                    <mxGeometry x="388" y="532" width="30" height="40" as="geometry"/>
                </mxCell>
                <mxCell id="57" value="Admin" style="text;html=1;align=center;verticalAlign=middle;resizable=0;points=[];autosize=1;strokeColor=default;fillColor=default;" vertex="1" parent="1">
                    <mxGeometry x="564" y="327" width="60" height="30" as="geometry"/>
                </mxCell>
                <mxCell id="58" value="Manager" style="text;html=1;align=center;verticalAlign=middle;resizable=0;points=[];autosize=1;strokeColor=#b85450;fillColor=#f8cecc;" vertex="1" parent="1">
                    <mxGeometry x="559" y="432" width="70" height="30" as="geometry"/>
                </mxCell>
                <mxCell id="59" value="Developers" style="text;html=1;align=center;verticalAlign=middle;resizable=0;points=[];autosize=1;strokeColor=#6c8ebf;fillColor=#dae8fc;" vertex="1" parent="1">
                    <mxGeometry x="554" y="537" width="80" height="30" as="geometry"/>
                </mxCell>
                <mxCell id="62" value="Team 1" style="text;html=1;align=center;verticalAlign=middle;resizable=0;points=[];autosize=1;strokeColor=none;fillColor=none;" vertex="1" parent="1">
                    <mxGeometry x="234" y="575" width="60" height="30" as="geometry"/>
                </mxCell>
                <mxCell id="64" value="Team 2" style="text;html=1;align=center;verticalAlign=middle;resizable=0;points=[];autosize=1;strokeColor=none;fillColor=none;" vertex="1" parent="1">
                    <mxGeometry x="428" y="575" width="60" height="30" as="geometry"/>
                </mxCell>
                <mxCell id="66" value="Roles" style="text;html=1;align=center;verticalAlign=middle;resizable=0;points=[];autosize=1;strokeColor=default;fillColor=default;strokeWidth=1;perimeterSpacing=1;rounded=0;" vertex="1" parent="1">
                    <mxGeometry x="179" y="316" width="50" height="30" as="geometry"/>
                </mxCell>
                <mxCell id="67" value="" style="rounded=0;whiteSpace=wrap;html=1;fillColor=#CCCCCC;fontColor=#333333;strokeColor=#666666;strokeWidth=2;" vertex="1" parent="1">
                    <mxGeometry x="217.75" y="632" width="392.5" height="230" as="geometry"/>
                </mxCell>
                <mxCell id="72" value="" style="shape=actor;whiteSpace=wrap;html=1;strokeWidth=3;" vertex="1" parent="1">
                    <mxGeometry x="238.75" y="642" width="30" height="40" as="geometry"/>
                </mxCell>
                <mxCell id="80" value="" style="shape=actor;whiteSpace=wrap;html=1;fillColor=#f8cecc;strokeColor=#b85450;strokeWidth=3;" vertex="1" parent="1">
                    <mxGeometry x="238.75" y="722" width="30" height="40" as="geometry"/>
                </mxCell>
                <mxCell id="83" value="" style="shape=actor;whiteSpace=wrap;html=1;fillColor=#dae8fc;strokeColor=#6c8ebf;strokeWidth=3;" vertex="1" parent="1">
                    <mxGeometry x="238.75" y="812" width="30" height="40" as="geometry"/>
                </mxCell>
                <mxCell id="87" value="add_emp, delete_emp, update_emp, get_emp" style="text;html=1;align=center;verticalAlign=middle;resizable=0;points=[];autosize=1;strokeColor=default;fillColor=default;" vertex="1" parent="1">
                    <mxGeometry x="291.75" y="647" width="270" height="30" as="geometry"/>
                </mxCell>
                <mxCell id="88" value="create_task, update_task, delete_task, get_tasks&amp;nbsp;" style="text;html=1;align=center;verticalAlign=middle;resizable=0;points=[];autosize=1;strokeColor=#b85450;fillColor=#f8cecc;" vertex="1" parent="1">
                    <mxGeometry x="291.75" y="727" width="290" height="30" as="geometry"/>
                </mxCell>
                <mxCell id="89" value="start_task, update_task, get_tasks" style="text;html=1;align=center;verticalAlign=middle;resizable=0;points=[];autosize=1;strokeColor=#6c8ebf;fillColor=#dae8fc;" vertex="1" parent="1">
                    <mxGeometry x="291.75" y="817" width="210" height="30" as="geometry"/>
                </mxCell>
                <mxCell id="92" value="Actions" style="text;html=1;align=center;verticalAlign=middle;resizable=0;points=[];autosize=1;strokeColor=default;fillColor=default;strokeWidth=1;perimeterSpacing=1;rounded=0;" vertex="1" parent="1">
                    <mxGeometry x="544" y="825" width="60" height="30" as="geometry"/>
                </mxCell>
                <mxCell id="93" value="Table Employee:&lt;div&gt;&lt;ul&gt;&lt;li&gt;&lt;span style=&quot;background-color: transparent;&quot;&gt;INT ID - Primary Key&lt;/span&gt;&lt;/li&gt;&lt;li&gt;&lt;span style=&quot;background-color: transparent;&quot;&gt;STR Email - Unique&lt;/span&gt;&lt;/li&gt;&lt;li&gt;&lt;span style=&quot;background-color: transparent;&quot;&gt;STR First Name&lt;/span&gt;&lt;/li&gt;&lt;li&gt;&lt;span style=&quot;background-color: transparent;&quot;&gt;STR Last Name&lt;/span&gt;&lt;/li&gt;&lt;li&gt;INT Manager - Foreign Key (ID)&lt;/li&gt;&lt;li&gt;STR Role (admin, manager, developer)&lt;/li&gt;&lt;/ul&gt;&lt;/div&gt;" style="text;html=1;align=left;verticalAlign=middle;resizable=0;points=[];autosize=1;strokeColor=#0e8088;fillColor=#b0e3e6;strokeWidth=2;" vertex="1" parent="1">
                    <mxGeometry x="128" y="932" width="270" height="170" as="geometry"/>
                </mxCell>
                <mxCell id="94" value="Table Task:&lt;div&gt;&lt;ul&gt;&lt;li&gt;&lt;span style=&quot;background-color: transparent;&quot;&gt;INT ID - Primary Key&lt;/span&gt;&lt;/li&gt;&lt;li&gt;&lt;span style=&quot;background-color: transparent;&quot;&gt;STR Title&lt;/span&gt;&lt;/li&gt;&lt;li&gt;&lt;span style=&quot;background-color: transparent;&quot;&gt;STR Description&lt;/span&gt;&lt;/li&gt;&lt;li&gt;&lt;span style=&quot;background-color: transparent;&quot;&gt;STR Reporter - Foreign Key (Employee.ID)&lt;/span&gt;&lt;/li&gt;&lt;li&gt;STR Assignee - Foreign Key (Employee.ID)&lt;/li&gt;&lt;li&gt;STR Status&lt;/li&gt;&lt;/ul&gt;&lt;/div&gt;" style="text;html=1;align=left;verticalAlign=middle;resizable=0;points=[];autosize=1;strokeColor=#10739e;fillColor=#b1ddf0;strokeWidth=2;" vertex="1" parent="1">
                    <mxGeometry x="408" y="932" width="290" height="170" as="geometry"/>
                </mxCell>
                <mxCell id="96" value="Tables" style="text;html=1;align=center;verticalAlign=middle;resizable=0;points=[];autosize=1;strokeColor=default;fillColor=default;strokeWidth=1;perimeterSpacing=1;rounded=0;" vertex="1" parent="1">
                    <mxGeometry x="369.75" y="890" width="60" height="30" as="geometry"/>
                </mxCell>
                <mxCell id="97" value="" style="shape=actor;whiteSpace=wrap;html=1;fillColor=#f8cecc;strokeColor=#b85450;strokeWidth=3;" vertex="1" parent="1">
                    <mxGeometry x="260" y="1162" width="30" height="40" as="geometry"/>
                </mxCell>
                <mxCell id="98" value="" style="shape=actor;whiteSpace=wrap;html=1;fillColor=#f8cecc;strokeColor=#b85450;strokeWidth=3;" vertex="1" parent="1">
                    <mxGeometry x="270" y="1172" width="30" height="40" as="geometry"/>
                </mxCell>
                <mxCell id="99" value="" style="shape=actor;whiteSpace=wrap;html=1;fillColor=#f8cecc;strokeColor=#b85450;strokeWidth=3;" vertex="1" parent="1">
                    <mxGeometry x="280" y="1182" width="30" height="40" as="geometry"/>
                </mxCell>
                <mxCell id="103" value="" style="shape=actor;whiteSpace=wrap;html=1;fillColor=#dae8fc;strokeColor=#6c8ebf;strokeWidth=3;" vertex="1" parent="1">
                    <mxGeometry x="524" y="1162" width="30" height="40" as="geometry"/>
                </mxCell>
                <mxCell id="104" value="" style="shape=actor;whiteSpace=wrap;html=1;fillColor=#dae8fc;strokeColor=#6c8ebf;strokeWidth=3;" vertex="1" parent="1">
                    <mxGeometry x="534" y="1172" width="30" height="40" as="geometry"/>
                </mxCell>
                <mxCell id="105" value="" style="shape=actor;whiteSpace=wrap;html=1;fillColor=#dae8fc;strokeColor=#6c8ebf;strokeWidth=3;" vertex="1" parent="1">
                    <mxGeometry x="544" y="1182" width="30" height="40" as="geometry"/>
                </mxCell>
                <mxCell id="106" value="" style="shape=actor;whiteSpace=wrap;html=1;fillColor=#dae8fc;strokeColor=#6c8ebf;strokeWidth=3;" vertex="1" parent="1">
                    <mxGeometry x="504" y="1162" width="30" height="40" as="geometry"/>
                </mxCell>
                <mxCell id="107" value="" style="shape=actor;whiteSpace=wrap;html=1;fillColor=#dae8fc;strokeColor=#6c8ebf;strokeWidth=3;" vertex="1" parent="1">
                    <mxGeometry x="514" y="1172" width="30" height="40" as="geometry"/>
                </mxCell>
                <mxCell id="108" value="" style="shape=actor;whiteSpace=wrap;html=1;fillColor=#dae8fc;strokeColor=#6c8ebf;strokeWidth=3;" vertex="1" parent="1">
                    <mxGeometry x="524" y="1182" width="30" height="40" as="geometry"/>
                </mxCell>
                <mxCell id="110" value="API" style="text;html=1;align=center;verticalAlign=middle;resizable=0;points=[];autosize=1;fillColor=default;strokeColor=default;" vertex="1" parent="1">
                    <mxGeometry x="389" y="1177" width="40" height="30" as="geometry"/>
                </mxCell>
                <mxCell id="112" style="edgeStyle=none;html=1;entryX=0.066;entryY=0.514;entryDx=0;entryDy=0;entryPerimeter=0;strokeWidth=3;" edge="1" parent="1" source="98" target="110">
                    <mxGeometry relative="1" as="geometry"/>
                </mxCell>
                <mxCell id="113" style="edgeStyle=none;html=1;entryX=0.1;entryY=0.5;entryDx=0;entryDy=0;entryPerimeter=0;strokeWidth=3;" edge="1" parent="1" source="110" target="107">
                    <mxGeometry relative="1" as="geometry"/>
                </mxCell>
            </root>
        </mxGraphModel>
    </diagram>
</mxfile>